<svg id="Cappuccino" xmlns="http://www.w3.org/2000/svg" xmlns:xlink="http://www.w3.org/1999/xlink" width="55" height="42" viewBox="0 0 55 42">
  <defs>
    <clipPath id="clip-path">
      <path id="Clip_3" data-name="Clip 3" d="M0,0H54.879V41.923H0Z" transform="translate(0.008 0.077)" fill="none"/>
    </clipPath>
  </defs>
  <g id="Group">
    <path id="Fill_1" data-name="Fill 1" d="M3.487,7.6,0,0H46.359l-3.59,7.6H3.487" transform="translate(1.026 33.369)" fill="#fde9da"/>
    <g id="Group_5" data-name="Group 5">
      <path id="Clip_3-2" data-name="Clip 3" d="M0,0H54.879V41.923H0Z" transform="translate(0.008 0.077)" fill="none"/>
      <g id="Group_5-2" data-name="Group 5" clip-path="url(#clip-path)">
        <path id="Fill_2" data-name="Fill 2" d="M5.643,32.367C2.156,32.367.412,27.949.207,26.2-.2,20.448.1,5.549.207,1.028V0H38.977V1.028c.1,4.418.41,19.42,0,25.174-.1,1.747-1.949,6.165-5.436,6.165H5.643" transform="translate(4.511 1.002)" fill="#b98875"/>
        <path id="Fill_4" data-name="Fill 4" d="M43.9,41.923H4.615a.987.987,0,0,1-.923-.617L.1,33.7a.624.624,0,0,1-.1-.411.972.972,0,0,1,1.026-1.028H5.949a9.341,9.341,0,0,1-2.256-5.035c-.441-5.736-.129-20.136-.026-24.868.016-.733.026-1.218.026-1.334A.972.972,0,0,1,4.718,0H43.59a.972.972,0,0,1,1.026,1.028c0,.046.005.166.013.347.027.615.089,2.055.089,3.968a10.785,10.785,0,0,1,7.077,3.172,10.621,10.621,0,0,1,3.077,7.1,10.638,10.638,0,0,1-10.256,11.2v.411a9.353,9.353,0,0,1-2.256,5.035h5.026a1.119,1.119,0,0,1,.512.1A1.016,1.016,0,0,1,48.41,33.7l-3.589,7.6A.989.989,0,0,1,43.9,41.923ZM2.564,34.32l2.667,5.549H43.179l2.564-5.549ZM5.744,2.055c-.019.758-.458,18.645,0,25.072a8.094,8.094,0,0,0,1.282,3.146,3.977,3.977,0,0,0,3.128,1.991h28c2.684,0,4.308-3.6,4.41-5.137.458-6.427.019-24.314,0-25.072ZM44.718,7.4c.158,8.054.158,13.734,0,17.365a8.691,8.691,0,0,0,8.2-8.221,8.582,8.582,0,0,0-8.2-9.145Z" transform="translate(0 0.077)" fill="#231514"/>
      </g>
    </g>
  </g>
</svg>
