<svg id="Mocha" xmlns="http://www.w3.org/2000/svg" xmlns:xlink="http://www.w3.org/1999/xlink" width="35" height="56" viewBox="0 0 35 56">
  <defs>
    <clipPath id="clip-path">
      <path id="Clip_4" data-name="Clip 4" d="M0,0H34.865V55.913H0Z" transform="translate(0.008 0.087)" fill="none"/>
    </clipPath>
  </defs>
  <g id="Group">
    <path id="Fill_1" data-name="Fill 1" d="M0,8.734.715,7.3c.715-1.541,2.657-4.213,7.255-4.213a15.5,15.5,0,0,1,5.212.925,13.328,13.328,0,0,0,2.759.617A2.216,2.216,0,0,0,17.985,3.8,2.969,2.969,0,0,0,18.5,1.747L18.394,0l1.533.719a6.309,6.309,0,0,1,2.861,2.569,6.743,6.743,0,0,1,.818,4.624l-.1.925L0,8.734" transform="translate(1.737 1.028)" fill="#fde9da"/>
    <path id="Fill_2" data-name="Fill 2" d="M3.679,29.079,0,0H20.847L17.168,29.079H3.679" transform="translate(3.168 25.996)" fill="#c69a80"/>
    <g id="Group_6" data-name="Group 6">
      <path id="Clip_4-2" data-name="Clip 4" d="M0,0H34.865V55.913H0Z" transform="translate(0.008 0.087)" fill="none"/>
      <g id="Group_6-2" data-name="Group 6" clip-path="url(#clip-path)">
        <path id="Fill_3" data-name="Fill 3" d="M2.044,16.235,0,0H24.934L22.891,16.235H2.044" transform="translate(1.124 9.761)" fill="#c69a80"/>
        <path id="Fill_5" data-name="Fill 5" d="M20.234,55.913H6.745a1.094,1.094,0,0,1-1.022-.925L0,9.674v-.1A.97.97,0,0,1,1.022,8.545,8.623,8.623,0,0,1,3.628,4.871,9.162,9.162,0,0,1,9.606,2.893,20.936,20.936,0,0,1,15.226,3.92a6.029,6.029,0,0,0,2.351.514,1.372,1.372,0,0,0,.27.027,1.522,1.522,0,0,0,1.058-.438,3.7,3.7,0,0,0,.1-2.774V.941A.967.967,0,0,1,19.971,0a.818.818,0,0,1,.16.016,8.877,8.877,0,0,1,5.212,3.6A7.632,7.632,0,0,1,26.365,8.75a1.134,1.134,0,0,1,.614,1.027L25.547,21.389A11.1,11.1,0,0,1,28.2,21.7a8.915,8.915,0,0,1,5.506,4.354,9.459,9.459,0,0,1,.83,7.051,8.909,8.909,0,0,1-3.326,4.889,9.339,9.339,0,0,1-5.526,1.816,9.476,9.476,0,0,1-2.49-.335L21.255,54.988A1.092,1.092,0,0,1,20.234,55.913ZM4.292,26.937,7.766,53.96h11.65l3.372-27.023Zm21.051-3.494L23.606,37.418a6.37,6.37,0,0,0,1.941.309,7.013,7.013,0,0,0,6.438-6.474,7.17,7.17,0,0,0-6.438-7.809ZM2.248,10.7l1.84,14.18H23.095l1.84-14.18Zm7.46-5.754a6.749,6.749,0,0,0-6.439,3.6H24.423a5.836,5.836,0,0,0-.715-3.905,6.275,6.275,0,0,0-2.452-2.157,3.7,3.7,0,0,1-.715,2.671A3.412,3.412,0,0,1,17.963,6.4c-.094,0-.19,0-.284-.013a8.208,8.208,0,0,1-3.065-.617A16.252,16.252,0,0,0,9.708,4.948Z" transform="translate(0 0.087)" fill="#231514"/>
      </g>
    </g>
  </g>
</svg>
