<?xml version="1.0" encoding="utf-8"?>
<!-- Generator: Adobe Illustrator 24.0.1, SVG Export Plug-In . SVG Version: 6.00 Build 0)  -->
<svg version="1.1" xmlns="http://www.w3.org/2000/svg" xmlns:xlink="http://www.w3.org/1999/xlink" x="0px" y="0px"
	 viewBox="0 0 25.4 37.2" style="enable-background:new 0 0 25.4 37.2;" xml:space="preserve">
<style type="text/css">
	.st0{fill:#E7B699;}
	.st1{fill:#BA9074;}
	.st2{fill:#AD7D6B;}
	.st3{fill:#2D140D;stroke:#2D140D;stroke-width:0.75;stroke-miterlimit:10;}
</style>
<g id="Layer_2">
	<path class="st0" d="M0.4,6.3c0,1.6,0,3.2,0,4.7c7.9,0,15.9-0.1,23.8-0.1c0-1.5,0.1-3,0.1-4.5C16.4,6.5,8.4,6.4,0.4,6.3z"/>
	<polygon class="st1" points="4.5,3.9 4.5,6.2 19.9,6.2 19.9,1.3 	"/>
	<path class="st1" d="M3.4,11.1c0.2,2.1,0.3,4.2,0.5,6.3c5.8,0.1,11.7,0.2,17.5,0.3c0.1-2.1,0.3-4.2,0.4-6.3
		C15.7,11.2,9.5,11.2,3.4,11.1z"/>
	<path class="st1" d="M6,29.2c0.1,2.1,0.2,4.2,0.4,6.3c4.3,0.1,8.6,0.2,12.8,0.3c0.1-2.1,0.2-4.2,0.3-6.3C15,29.3,10.5,29.3,6,29.2z
		"/>
	<path class="st2" d="M3.9,17.5c0.6,3.9,1.1,7.8,1.7,11.7c4.4-0.1,8.7-0.2,13.1-0.3c0.6-3.7,1.3-7.4,1.9-11.1
		C15,17.7,9.4,17.6,3.9,17.5z"/>
</g>
<g id="Layer_1">
	<g id="Group_Copy_1_" transform="translate(0.5 0.483)">
		<path id="Fill_7_1_" class="st3" d="M18.2,36.2h-12c-0.3,0-0.6-0.3-0.7-0.6L2,11.3H1.3c-0.7,0-1.4-0.6-1.4-1.4V6.6
			c0-0.7,0.6-1.4,1.4-1.4h2.1V3.6c0-0.3,0.2-0.6,0.5-0.7L19.5,0h0.1c0.4,0,0.7,0.3,0.7,0.6c0,0,0,0.1,0,0.1v4.6H23
			c0.7,0,1.4,0.6,1.4,1.4v3.2c0,0.7-0.6,1.4-1.4,1.4h-0.7l-3.4,24.4C18.8,36,18.5,36.2,18.2,36.2z M5.9,29.1l0.8,5.7h10.9l0.7-5.7
			L5.9,29.1z M4.3,17.7l1.4,10h12.8l1.5-10L4.3,17.7z M3.4,11.2l0.7,5.2h16.1l0.7-5.2H3.4z M1.3,6.6v3.2h21.8V6.6H1.3z M19,1.5
			L4.7,4.2v1.1H19V1.5z"/>
	</g>
</g>
</svg>
