<?xml version="1.0" encoding="utf-8"?>
<!-- Generator: Adobe Illustrator 24.0.1, SVG Export Plug-In . SVG Version: 6.00 Build 0)  -->
<svg version="1.1" xmlns="http://www.w3.org/2000/svg" xmlns:xlink="http://www.w3.org/1999/xlink" x="0px" y="0px"
	 viewBox="0 0 20.5 25.4" style="enable-background:new 0 0 20.5 25.4;" xml:space="preserve">
<style type="text/css">
	.st0{fill:#E7B699;}
	.st1{fill:#BA9074;}
	.st2{fill:#AD7D6B;}
	.st3{fill:#2D140D;stroke:#2D140D;stroke-width:0.3;stroke-miterlimit:10;}
</style>
<g id="Layer_2">
</g>
<g id="Layer_1">
	<path class="st0" d="M0.8,1.3c0,0.7,0,1.4,0,2.2c6.3,0.1,12.5,0.1,18.8,0.2l0-2.4C13.4,1.3,7.1,1.3,0.8,1.3z"/>
	<path class="st1" d="M3,4.3C3.1,6,3.2,7.6,3.4,9.2c4.5-0.2,9-0.3,13.6-0.5c0.2-1.4,0.4-2.9,0.6-4.3C12.7,4.3,7.8,4.3,3,4.3z"/>
	<path class="st1" d="M4.8,19.4C4.9,21,5,22.6,5,24.2c3.3,0.1,6.7,0.3,10,0.4c0.1-1.8,0.3-3.5,0.4-5.3C11.9,19.4,8.3,19.4,4.8,19.4z
		"/>
	<path class="st2" d="M3.4,9.2c0.3,3.1,0.6,6.2,1,9.3c3.9,0,7.7,0.1,11.6,0.1c0.4-3,0.8-6,1.2-9C12.5,9.5,7.9,9.3,3.4,9.2z"/>
	<path id="Fill_7_1_" class="st3" d="M15.2,25.3H5.3c-0.3,0-0.5-0.2-0.6-0.5L1.9,4.4H1.3c-0.6,0-1.1-0.5-1.1-1.1c0,0,0,0,0,0v-2
		c0-0.6,0.5-1.1,1.1-1.1h18c0.6,0,1.1,0.5,1.1,1.1v1.9c0,0.6-0.5,1.1-1.1,1.1h-0.6l-2.8,20.4C15.8,25.1,15.5,25.3,15.2,25.3z
		 M5.1,19.4l0.7,4.7h9l0.6-4.7L5.1,19.4z M3.8,9.8L5,18.2h10.6l1.2-8.3H3.8z M3,4.3l0.6,4.3h13.3l0.6-4.3L3,4.3z M1.3,1.3v1.9h18
		V1.3L1.3,1.3z"/>
</g>
</svg>
