<?xml version="1.0" encoding="utf-8"?>
<!-- Generator: Adobe Illustrator 24.0.1, SVG Export Plug-In . SVG Version: 6.00 Build 0)  -->
<svg version="1.1" xmlns="http://www.w3.org/2000/svg" xmlns:xlink="http://www.w3.org/1999/xlink" x="0px" y="0px"
	 viewBox="0 0 11.6 11.8" style="enable-background:new 0 0 11.6 11.8;" xml:space="preserve">
<style type="text/css">
	.st0{fill:#BE8F76;}
	.st1{fill:none;stroke:#2D140D;stroke-width:2;stroke-miterlimit:10;}
</style>
<g id="Layer_2">
	<path class="st0" d="M9.8,10.3H3.1c-0.3,0-0.5-0.2-0.5-0.5V3c0-0.3,0.2-0.5,0.5-0.5h6.7c0.3,0,0.5,0.2,0.5,0.5v6.9
		C10.2,10.1,10,10.3,9.8,10.3z"/>
</g>
<g id="Layer_1">
	<path id="Fill_9" class="st1" d="M10.6,2.2v7.3c0,0.7-0.5,1.2-1.2,1.2c0,0,0,0,0,0H2.2C1.5,10.8,1,10.2,1,9.6c0,0,0,0,0,0V2.2
		C1,1.6,1.5,1,2.2,1c0,0,0,0,0,0h7.2C10.1,1,10.6,1.6,10.6,2.2C10.6,2.2,10.6,2.2,10.6,2.2z"/>
</g>
</svg>
