<?xml version="1.0" encoding="utf-8"?>
<!-- Generator: Adobe Illustrator 24.0.1, SVG Export Plug-In . SVG Version: 6.00 Build 0)  -->
<svg version="1.1" xmlns="http://www.w3.org/2000/svg" xmlns:xlink="http://www.w3.org/1999/xlink" x="0px" y="0px"
	 viewBox="0 0 25.4 17.8" style="enable-background:new 0 0 25.4 17.8;" xml:space="preserve">
<style type="text/css">
	.st0{fill:#BE8F76;}
	.st1{fill:none;stroke:#2D140D;stroke-width:2;stroke-miterlimit:10;}
</style>
<g id="Layer_2">
	<path class="st0" d="M23.1,15.8h-6.7c-0.3,0-0.5-0.2-0.5-0.5V8.5C16,8.2,16.2,8,16.4,8h6.7c0.3,0,0.5,0.2,0.5,0.5v6.9
		C23.6,15.6,23.4,15.8,23.1,15.8z"/>
	<path class="st0" d="M10.3,11H3.6c-0.3,0-0.5-0.2-0.5-0.5V3.6c0-0.3,0.2-0.5,0.5-0.5h6.7c0.3,0,0.5,0.2,0.5,0.5v6.9
		C10.8,10.8,10.6,11,10.3,11z"/>
</g>
<g id="Layer_1">
	<g id="Group_4_Copy_2" transform="translate(0.7 1.093)">
		<g id="Group_10">
			<path id="Fill_9" class="st1" d="M22,15.2h-7.2c-0.7,0-1.2-0.6-1.2-1.2V6.6c0-0.7,0.5-1.2,1.2-1.2H22c0.7,0,1.2,0.6,1.2,1.2V14
				C23.2,14.6,22.7,15.2,22,15.2z M9.2,10.2H2c-0.7,0-1.2-0.6-1.2-1.2V1.6C0.8,1,1.3,0.4,2,0.4h7.2c0.7,0,1.2,0.6,1.2,1.2V9
				C10.4,9.6,9.9,10.2,9.2,10.2z"/>
		</g>
	</g>
</g>
</svg>
