<svg id="macciato" xmlns="http://www.w3.org/2000/svg" xmlns:xlink="http://www.w3.org/1999/xlink" width="66" height="98" viewBox="0 0 66 98">
  <defs>
    <clipPath id="clip-path">
      <path id="Clip_6" data-name="Clip 6" d="M0,0H65.9V97.8H0Z" transform="translate(0.014 0.046)" fill="none"/>
    </clipPath>
  </defs>
  <g id="macciato-2" data-name="macciato">
    <path id="Fill_1" data-name="Fill 1" d="M2.731,19.158,0,0H37.87L35.139,19.158H2.731" transform="translate(14.019 76.678)" fill="#c69a80"/>
    <path id="Fill_2" data-name="Fill 2" d="M0,14.184V7.921L42.058,0V14.184H0" transform="translate(11.106 1.888)" fill="#c69a80"/>
    <path id="Fill_3" data-name="Fill 3" d="M42.24,30.58H4.37L0,0H46.61L42.24,30.579ZM30.406,14.553a13.919,13.919,0,0,1-5.1,3.5c-2.439,1.233-4.533,2.513-5.462,5.711a1.341,1.341,0,0,1,.454.092,1.344,1.344,0,0,0,.456.092,10.364,10.364,0,0,0,6.918-4.053A11.6,11.6,0,0,0,30.406,14.553ZM25.853,8.105a10.368,10.368,0,0,0-6.918,4.053,13.333,13.333,0,0,0-2.549,4.421,18.151,18.151,0,0,1,5.28-3.684l.247-.134c2.219-1.207,3.972-2.161,4.851-4.471a2.172,2.172,0,0,1-.6-.116,1.286,1.286,0,0,0-.308-.069h0Z" transform="translate(9.65 46.099)" fill="#b98875"/>
    <path id="Fill_4" data-name="Fill 4" d="M0,12.342H62.45V0H0Z" transform="translate(1.821 16.072)" fill="#eabfa5"/>
    <g id="Group_8" data-name="Group 8">
      <path id="Clip_6-2" data-name="Clip 6" d="M0,0H65.9V97.8H0Z" transform="translate(0.014 0.046)" fill="none"/>
      <g id="Group_8-2" data-name="Group 8" clip-path="url(#clip-path)">
        <path id="Fill_5" data-name="Fill 5" d="M2.549,17.684,0,0H51.708L49.159,17.684H2.549" transform="translate(7.101 28.415)" fill="#c69a80"/>
        <path id="Fill_7" data-name="Fill 7" d="M49.159,97.816H16.75a1.95,1.95,0,0,1-1.82-1.658L5.644,30.395h-2A3.667,3.667,0,0,1,0,26.71V17.869a3.667,3.667,0,0,1,3.641-3.685H9.285V9.763a1.8,1.8,0,0,1,1.457-1.842L52.618,0h.364A1.734,1.734,0,0,1,54.8,1.842V14.184h7.465a3.667,3.667,0,0,1,3.641,3.685v8.658a3.667,3.667,0,0,1-3.641,3.684h-2L50.98,96.158A1.952,1.952,0,0,1,49.159,97.816ZM16.022,78.658l2.185,15.289H47.7l2-15.289H16.022ZM11.834,47.894l3.824,26.9H50.251l4.006-26.9ZM9.285,30.21l2,14H54.621l2-14ZM3.641,17.869v8.658H62.45V17.869Zm47.7-13.816h0L12.927,11.236v2.948H51.343V4.053Z" transform="translate(0 0.046)" fill="#231514"/>
      </g>
    </g>
    <path id="Fill_9" data-name="Fill 9" d="M14.7.98C12.148-1.231,7.05.427,3.409,4.664s-4.552,9.579-1.821,11.79C3.044,6.506,13.058,9.822,14.7.98" transform="translate(23.72 52.487)" fill="#fde9da"/>
    <path id="Fill_10" data-name="Fill 10" d="M0,15.474c2.549,2.211,7.647.553,11.288-3.684S15.84,2.211,13.109,0C11.47,8.842,1.457,5.526,0,15.474" transform="translate(27.492 55.309)" fill="#fde9da"/>
  </g>
</svg>
