<?xml version="1.0" encoding="utf-8"?>
<!-- Generator: Adobe Illustrator 24.0.1, SVG Export Plug-In . SVG Version: 6.00 Build 0)  -->
<svg version="1.1" xmlns="http://www.w3.org/2000/svg" xmlns:xlink="http://www.w3.org/1999/xlink" x="0px" y="0px"
	 viewBox="0 0 20.8 20.8" style="enable-background:new 0 0 20.8 20.8;" xml:space="preserve">
<style type="text/css">
	.st0{fill:#BE8F76;}
	.st1{fill:none;stroke:#2D140D;stroke-width:2;stroke-miterlimit:10;}
	.st2{fill:none;stroke:#2D140D;stroke-width:2;stroke-linecap:square;stroke-miterlimit:10;}
</style>
<g id="Layer_2">
	<path class="st0" d="M14.1,14.6H7.4c-0.3,0-0.5-0.2-0.5-0.5V7.3c0-0.3,0.2-0.5,0.5-0.5h6.7c0.3,0,0.5,0.2,0.5,0.5v6.9
		C14.6,14.4,14.4,14.6,14.1,14.6z"/>
</g>
<g id="Layer_1">
	<g id="Group_4_Copy_4" transform="translate(1.414 1.414)">
		<path id="Fill_9" class="st1" d="M13.7,5.2v7.3c0,0.7-0.5,1.2-1.2,1.2c0,0,0,0,0,0H5.3c-0.7,0-1.2-0.6-1.2-1.2c0,0,0,0,0,0V5.2
			C4,4.5,4.6,4,5.3,4c0,0,0,0,0,0h7.2C13.1,4,13.7,4.5,13.7,5.2C13.7,5.2,13.7,5.2,13.7,5.2z"/>
		<path id="Line" class="st2" d="M0,0l18,18"/>
	</g>
</g>
</svg>
