<svg xmlns="http://www.w3.org/2000/svg" xmlns:xlink="http://www.w3.org/1999/xlink" width="141" height="163.188" viewBox="0 0 141 163.188">
  <defs>
    <clipPath id="clip-path">
      <path id="Clip_2" data-name="Clip 2" d="M0,0H115.92V68.027H0Z" transform="translate(0 0.235)" fill="none"/>
    </clipPath>
  </defs>
  <g id="logo" transform="translate(0 -0.059)">
    <g id="Espresso" transform="translate(24)">
      <g id="Group">
        <g id="Group_4" data-name="Group 4" transform="translate(0 48.561)">
          <path id="Clip_2-2" data-name="Clip 2" d="M0,0H115.92V68.027H0Z" transform="translate(0 0.235)" fill="none"/>
          <g id="Group_4-2" data-name="Group 4" clip-path="url(#clip-path)">
            <path id="Fill_1" data-name="Fill 1" d="M44.873,63.335C20.2,63.335,0,39.555,0,10.36V0H89.511V10.36c0,29.2-19.97,52.976-44.638,52.976" transform="translate(2.349 2.59)" fill="#b98068"/>
            <path id="Fill_3" data-name="Fill 3" d="M47.222,68.045A41.111,41.111,0,0,1,28.842,63.7a47.378,47.378,0,0,1-15.01-11.846A56.418,56.418,0,0,1,3.711,34.272,63.31,63.31,0,0,1,0,12.714V2.354A2.226,2.226,0,0,1,2.349,0h99.614a15.022,15.022,0,0,1,6.02,1.589,13.41,13.41,0,0,1,4.787,4.062,18.191,18.191,0,0,1,2.936,7.387,17.387,17.387,0,0,1-.587,7.917,24.658,24.658,0,0,1-4.864,9.135,30.956,30.956,0,0,1-7.441,6.376,38.506,38.506,0,0,1-8.278,3.859,32.744,32.744,0,0,1-7.375,1.585,51.894,51.894,0,0,1-16.71,18.9,43.276,43.276,0,0,1-11.009,5.342A40.351,40.351,0,0,1,47.222,68.045ZM4.7,4.709v8.005c0,27.913,18.97,50.621,42.288,50.621,23.448,0,42.524-22.709,42.524-50.621V4.709Zm89.51.236v8a64.549,64.549,0,0,1-4.7,24.017c6.435-1.411,18.131-6.618,21.144-17.188a12.217,12.217,0,0,0-1.409-11.065,8.992,8.992,0,0,0-7.283-3.767H94.209Z" transform="translate(0 0.235)" fill="#2d140d"/>
          </g>
        </g>
        <path id="Fill_5" data-name="Fill 5" d="M2.349,29.9A2.222,2.222,0,0,0,4.7,27.547V2.354A2.222,2.222,0,0,0,2.349,0,2.222,2.222,0,0,0,0,2.354V27.547A2.357,2.357,0,0,0,2.349,29.9" transform="translate(36.885 13.715)" fill="#2d140d"/>
        <path id="Fill_6" data-name="Fill 6" d="M2.349,43.558A2.222,2.222,0,0,0,4.7,41.2V2.354A2.222,2.222,0,0,0,2.349,0,2.222,2.222,0,0,0,0,2.354V41.2a2.529,2.529,0,0,0,2.349,2.354" transform="translate(52.626 0.059)" fill="#2d140d"/>
      </g>
    </g>
    <path id="CoffeeTEK" d="M81.679,23.247A8.488,8.488,0,0,1,75.5,21.065a8.3,8.3,0,0,1-2.227-6.182,9.125,9.125,0,0,1,2.058-6.364A7.357,7.357,0,0,1,81.02,6.269a7.249,7.249,0,0,1,5.405,1.977,7.516,7.516,0,0,1,1.933,5.464v2.168H77.8a4.319,4.319,0,0,0,1.128,2.974,3.989,3.989,0,0,0,2.959,1.069,12.393,12.393,0,0,0,2.8-.307,14.111,14.111,0,0,0,2.754-.982V22.09a10.558,10.558,0,0,1-2.5.872A15.918,15.918,0,0,1,81.679,23.247Zm-.63-13.8a2.847,2.847,0,0,0-2.227.9,4.192,4.192,0,0,0-.922,2.556h6.269a3.743,3.743,0,0,0-.864-2.556A2.942,2.942,0,0,0,81.049,9.448ZM65.2,23.247a8.492,8.492,0,0,1-6.182-2.183,8.3,8.3,0,0,1-2.227-6.182,9.128,9.128,0,0,1,2.058-6.364,7.36,7.36,0,0,1,5.691-2.249,7.246,7.246,0,0,1,5.405,1.977,7.513,7.513,0,0,1,1.934,5.464v2.168H61.314a4.319,4.319,0,0,0,1.128,2.974A3.986,3.986,0,0,0,65.4,19.922a12.377,12.377,0,0,0,2.8-.307,14.069,14.069,0,0,0,2.754-.982V22.09a10.549,10.549,0,0,1-2.5.872A15.9,15.9,0,0,1,65.2,23.247Zm-.63-13.8a2.847,2.847,0,0,0-2.227.9,4.181,4.181,0,0,0-.922,2.556h6.269a3.743,3.743,0,0,0-.864-2.556A2.942,2.942,0,0,0,64.566,9.448Zm-39.191,13.8a8.25,8.25,0,0,1-4.16-1.032,6.909,6.909,0,0,1-2.769-2.966,10.019,10.019,0,0,1-.967-4.512,8.789,8.789,0,0,1,2.1-6.241,7.725,7.725,0,0,1,5.889-2.227,8.307,8.307,0,0,1,4.16,1.025,6.877,6.877,0,0,1,2.768,2.945,9.921,9.921,0,0,1,.967,4.5,8.841,8.841,0,0,1-2.109,6.255A7.683,7.683,0,0,1,25.375,23.247ZM25.4,9.873a2.862,2.862,0,0,0-2.578,1.209,6.789,6.789,0,0,0-.791,3.655,6.906,6.906,0,0,0,.8,3.676,2.866,2.866,0,0,0,2.6,1.245A2.82,2.82,0,0,0,28,18.42a7,7,0,0,0,.784-3.684A6.8,6.8,0,0,0,28,11.089,2.872,2.872,0,0,0,25.4,9.873ZM9.624,23.247c-3.1,0-5.506-.954-7.148-2.834S0,15.794,0,12.275A13.344,13.344,0,0,1,1.216,6.423,8.828,8.828,0,0,1,4.71,2.57a10.386,10.386,0,0,1,5.339-1.34,14.475,14.475,0,0,1,6.27,1.509L14.854,6.43a24.467,24.467,0,0,0-2.417-1,7.255,7.255,0,0,0-2.388-.425A4.644,4.644,0,0,0,6.08,6.936,9,9,0,0,0,4.673,12.3a8.943,8.943,0,0,0,1.344,5.372,4.739,4.739,0,0,0,4.032,1.791,17.084,17.084,0,0,0,5.464-1.128v3.808A15.239,15.239,0,0,1,9.624,23.247Zm117.71-.292h-4.541V1.538h4.541v9.8l1.787-2.52,5.8-7.28h5.039l-7.471,9.478,7.528,11.937-5.155,0-5.611-9.023-1.919,1.376v7.647Zm-7.767,0H107.232V1.538h12.334V5.259h-7.793v4.7h7.251v3.721h-7.251V19.2h7.793v3.749Zm-20.2,0H94.822V5.317H89.006V1.538h16.172V5.317H99.363V22.954Zm-46.753,0H48.142V9.931H45.68V7.779l2.462-1.2v-1.2a5.389,5.389,0,0,1,1.377-4.087A6.338,6.338,0,0,1,53.928,0a11.521,11.521,0,0,1,4.116.688L56.9,3.97a8.353,8.353,0,0,0-2.49-.425,1.621,1.621,0,0,0-1.377.563,2.344,2.344,0,0,0-.425,1.444V6.577h3.867V9.931H52.61V22.954Zm-11.616,0H36.526V9.931H34.064V7.779l2.461-1.2v-1.2A5.389,5.389,0,0,1,37.9,1.289,6.338,6.338,0,0,1,42.312,0a11.521,11.521,0,0,1,4.116.688L45.285,3.97a8.353,8.353,0,0,0-2.49-.425,1.621,1.621,0,0,0-1.377.563,2.344,2.344,0,0,0-.425,1.444V6.577h3.867V9.931H40.993V22.954Z" transform="translate(0 140)" fill="#2d140d"/>
    <rect id="Rectangle_2" data-name="Rectangle 2" width="140" height="5" rx="2.5" transform="translate(1 127)" fill="#2d140d"/>
  </g>
</svg>
