<svg id="Espresso" xmlns="http://www.w3.org/2000/svg" xmlns:xlink="http://www.w3.org/1999/xlink" width="50" height="51" viewBox="0 0 50 51">
  <defs>
    <clipPath id="clip-path">
      <path id="Clip_2" data-name="Clip 2" d="M0,0H49.965V29.322H0Z" transform="translate(0 0.101)" fill="none"/>
    </clipPath>
  </defs>
  <g id="Group">
    <g id="Group_4" data-name="Group 4" transform="translate(0 20.932)">
      <path id="Clip_2-2" data-name="Clip 2" d="M0,0H49.965V29.322H0Z" transform="translate(0 0.101)" fill="none"/>
      <g id="Group_4-2" data-name="Group 4" clip-path="url(#clip-path)">
        <path id="Fill_1" data-name="Fill 1" d="M19.342,27.3C8.709,27.3,0,17.05,0,4.465V0H38.582V4.465c0,12.584-8.608,22.834-19.241,22.834" transform="translate(1.013 1.116)" fill="#b98875"/>
        <path id="Fill_3" data-name="Fill 3" d="M20.354,29.329A18.852,18.852,0,0,1,5.962,22.352,25.9,25.9,0,0,1,0,5.48V1.015A.96.96,0,0,1,1.013,0H43.95a6.131,6.131,0,0,1,4.658,2.435A7.844,7.844,0,0,1,49.873,5.62a7.5,7.5,0,0,1-.253,3.413,11.811,11.811,0,0,1-5.3,6.685,16.005,16.005,0,0,1-6.747,2.347,22.369,22.369,0,0,1-7.2,8.144A17.954,17.954,0,0,1,20.354,29.329ZM2.025,2.03V5.48c0,12.031,8.177,21.82,18.229,21.82,10.106,0,18.328-9.788,18.328-21.82V2.03Zm38.583.1V5.582a27.817,27.817,0,0,1-2.026,10.352c2.773-.608,7.815-2.852,9.114-7.409a5.268,5.268,0,0,0-.607-4.77A3.879,3.879,0,0,0,43.95,2.131Z" transform="translate(0 0.101)" fill="#231514"/>
      </g>
    </g>
    <path id="Fill_5" data-name="Fill 5" d="M1.013,12.889a.958.958,0,0,0,1.013-1.015V1.015A.958.958,0,0,0,1.013,0,.958.958,0,0,0,0,1.015V11.874a1.016,1.016,0,0,0,1.013,1.015" transform="translate(15.899 5.912)" fill="#231514"/>
    <path id="Fill_6" data-name="Fill 6" d="M1.013,18.775A.958.958,0,0,0,2.025,17.76V1.015A.958.958,0,0,0,1.013,0,.958.958,0,0,0,0,1.015V17.76a1.09,1.09,0,0,0,1.013,1.015" transform="translate(22.684 0.025)" fill="#231514"/>
  </g>
</svg>
