<?xml version="1.0" encoding="utf-8"?>
<!-- Generator: Adobe Illustrator 24.0.1, SVG Export Plug-In . SVG Version: 6.00 Build 0)  -->
<svg version="1.1" xmlns="http://www.w3.org/2000/svg" xmlns:xlink="http://www.w3.org/1999/xlink" x="0px" y="0px"
	 viewBox="0 0 28.6 43" style="enable-background:new 0 0 28.6 43;" xml:space="preserve">
<style type="text/css">
	.st0{fill:#BA9074;}
	.st1{fill:#E7B699;}
	.st2{fill:#AD7D6B;}
	.st3{fill:#2D140D;}
</style>
<g id="Layer_2">
	<polygon class="st0" points="5.1,4.2 5.1,7.1 22.8,7.1 22.8,0.9 	"/>
	<path class="st0" d="M3.7,12.3c0.2,2.5,0.4,5,0.6,7.5c6.7,0.1,13.5,0.2,20.2,0.3c0.2-2.5,0.3-5,0.5-7.6
		C17.9,12.5,10.8,12.4,3.7,12.3z"/>
	<path class="st0" d="M6.3,34c0.1,2.5,0.3,5,0.4,7.5c5,0.1,9.9,0.2,14.9,0.3c0.1-2.5,0.2-5,0.4-7.6C16.8,34.2,11.6,34.1,6.3,34z"/>
	<path class="st1" d="M1.1,7.4c0,1.6,0,3.2,0,4.7c8.8,0,17.6-0.1,26.3-0.1c0.1-1.5,0.1-3,0.2-4.5C18.8,7.5,10,7.5,1.1,7.4z"/>
	<path class="st2" d="M4.3,19.9C5,24.6,5.7,29.3,6.3,34c5.3-0.1,10.6-0.3,15.9-0.4c0.8-4.5,1.5-8.9,2.3-13.4
		C17.7,20.1,11,20,4.3,19.9z"/>
</g>
<g id="Layer_1">
	<g id="Group_Copy_2" transform="translate(0 -0.02)">
		<path id="Fill_7" class="st3" d="M21.4,43H7.3c-0.4,0-0.7-0.3-0.8-0.7l-4-28.9H1.6c-0.9,0-1.6-0.7-1.6-1.6c0,0,0,0,0,0V7.9
			C0,7,0.7,6.3,1.6,6.2c0,0,0,0,0,0H4V4.3c0-0.4,0.3-0.7,0.6-0.8L22.9,0H23c0.4,0,0.8,0.3,0.8,0.7c0,0,0,0.1,0,0.1v5.4h3.2
			c0.9,0,1.6,0.7,1.6,1.6c0,0,0,0,0,0v3.8c0,0.9-0.7,1.6-1.6,1.6c0,0,0,0,0,0h-0.9l-4,29C22.1,42.6,21.8,42.9,21.4,43z M7,34.6
			l0.9,6.7h12.8l0.9-6.7H7z M5.1,21.1l1.7,11.8h15l1.7-11.8L5.1,21.1z M4,13.3l0.9,6.1h18.8l0.9-6.1H4z M1.6,7.9v3.8h25.6V7.9
			L1.6,7.9z M22.3,1.8L5.6,5v1.3h16.7L22.3,1.8z"/>
	</g>
</g>
</svg>
