<svg id="latte" xmlns="http://www.w3.org/2000/svg" xmlns:xlink="http://www.w3.org/1999/xlink" width="41" height="59" viewBox="0 0 41 59">
  <defs>
    <clipPath id="clip-path">
      <path id="Clip_4" data-name="Clip 4" d="M0,0H40.947V58.954H0Z" transform="translate(0.008 0.046)" fill="none"/>
    </clipPath>
  </defs>
  <g id="latte-2" data-name="latte">
    <path id="Fill_1" data-name="Fill 1" d="M0,9.172V8.141A4.7,4.7,0,0,1,4.686,3.4a4.567,4.567,0,0,1,1.63.309C7.029,1.546,9.575,0,12.529,0s5.5,1.546,6.112,3.71A4.046,4.046,0,0,1,20.169,3.4a4.856,4.856,0,0,1,4.788,4.741V9.172H0" transform="translate(2.819 1.082)" fill="#c69a80"/>
    <path id="Fill_2" data-name="Fill 2" d="M14.159,25.043a9.679,9.679,0,0,1-7.538-3.607Q1.273,15.562.2,1.031L0,0H28.114l-.1,1.134Q26.79,15.665,21.6,21.539a9.55,9.55,0,0,1-7.436,3.5" transform="translate(1.189 21.178)" fill="#cf9775"/>
    <g id="Group_6" data-name="Group 6">
      <path id="Clip_4-2" data-name="Clip 4" d="M0,0H40.947V58.954H0Z" transform="translate(0.008 0.046)" fill="none"/>
      <g id="Group_6-2" data-name="Group 6" clip-path="url(#clip-path)">
        <path id="Fill_3" data-name="Fill 3" d="M.229,11.13.127,10.1c-.2-4.019-.1-7.42-.1-9.069V0H28.343V1.031a69.268,69.268,0,0,1-.1,9.069V11.13H.229" transform="translate(0.96 10.048)" fill="#fde9da"/>
        <path id="Fill_5" data-name="Fill 5" d="M25.33,58.954H6.486a1.031,1.031,0,0,1,0-2.061h5.3V46.69A13,13,0,0,1,7,43.393a23.426,23.426,0,0,1-4.648-9.027A56.442,56.442,0,0,1,.374,23.58a85.894,85.894,0,0,1-.2-13.475,1,1,0,0,1,1.019-.928H1.8A6.021,6.021,0,0,1,3.558,5.094,5.7,5.7,0,0,1,7.607,3.407a3.46,3.46,0,0,1,1.019.1A7.533,7.533,0,0,1,15.054,0c.1,0,.2,0,.295.006S15.538,0,15.633,0a7.644,7.644,0,0,1,6.439,3.509,2.811,2.811,0,0,1,.916-.1,5.788,5.788,0,0,1,4.087,1.688,5.7,5.7,0,0,1,1.719,4.083h.714a1,1,0,0,1,1.019.928c0,.071.005.251.014.525.029.96.088,2.957.088,5.658l.235-.04a8.417,8.417,0,0,1,1.5-.166,9.122,9.122,0,0,1,3.565.722,8.568,8.568,0,0,1,4.469,4.831,8.623,8.623,0,0,1-8.016,11.7,8.31,8.31,0,0,1-3.481-.76A25.18,25.18,0,0,1,23.8,43.393a10.976,10.976,0,0,1-4.788,3.3v10.2H25.33a1.031,1.031,0,0,1,0,2.061ZM13.82,47.1V56.79h3.055V47.1h-.013a7.475,7.475,0,0,0-.751.051A8.5,8.5,0,0,1,13.82,47.1ZM2.411,22.162h0C2.88,28.607,4.32,37.272,8.524,41.95a5.842,5.842,0,0,0,1.121,1.133A8.816,8.816,0,0,0,22.173,41.95c3.3-3.671,5.389-10.329,6.214-19.787H2.411Zm30.028-4.079a6.348,6.348,0,0,0-1.811.266A66.685,66.685,0,0,1,29.3,30.407a6.19,6.19,0,0,0,3.056.824,5.607,5.607,0,0,0,1.833-.206,6.607,6.607,0,0,0-1.754-12.942ZM2.106,11.136c0,.32,0,.722-.009,1.187-.02,1.829-.05,4.592.111,7.779H28.387a67.91,67.91,0,0,0,.1-8.966H2.106Zm5.5-5.771a3.744,3.744,0,0,0-3.769,3.71H26.859a3.833,3.833,0,0,0-3.769-3.71,5.051,5.051,0,0,0-1.222.206,1.177,1.177,0,0,1-.376.065,1.022,1.022,0,0,1-.948-.683A3.814,3.814,0,0,0,18.672,2.8a6.822,6.822,0,0,0-3.323-.837c-2.519,0-4.7,1.3-5.2,3.091a1.053,1.053,0,0,1-.509.618,1.408,1.408,0,0,1-.445.078.821.821,0,0,1-.369-.078A2.7,2.7,0,0,0,7.607,5.365Z" transform="translate(0 0.046)" fill="#231514"/>
      </g>
    </g>
  </g>
</svg>
