<?xml version="1.0" encoding="utf-8"?>
<!-- Generator: Adobe Illustrator 24.0.1, SVG Export Plug-In . SVG Version: 6.00 Build 0)  -->
<svg version="1.1" xmlns="http://www.w3.org/2000/svg" xmlns:xlink="http://www.w3.org/1999/xlink" x="0px" y="0px"
	 viewBox="0 0 24.4 22.4" style="enable-background:new 0 0 24.4 22.4;" xml:space="preserve">
<style type="text/css">
	.st0{fill:#BE8F76;}
	.st1{fill:none;stroke:#2D140D;stroke-width:2;stroke-miterlimit:10;}
</style>
<g id="Layer_2">
	<path class="st0" d="M16,10.2H9.3c-0.3,0-0.5-0.2-0.5-0.5V2.9c0-0.3,0.2-0.5,0.5-0.5H16c0.3,0,0.5,0.2,0.5,0.5v6.9
		C16.5,10,16.3,10.2,16,10.2z"/>
	<path class="st0" d="M22.3,20.8h-6.7c-0.3,0-0.5-0.2-0.5-0.5v-6.9c0-0.3,0.2-0.5,0.5-0.5h6.7c0.3,0,0.5,0.2,0.5,0.5v6.9
		C22.8,20.5,22.6,20.8,22.3,20.8z"/>
	<path class="st0" d="M9.5,20.8H2.8c-0.3,0-0.5-0.2-0.5-0.5v-6.9c0-0.3,0.2-0.5,0.5-0.5h6.7c0.3,0,0.5,0.2,0.5,0.5v6.9
		C10,20.5,9.8,20.8,9.5,20.8z"/>
</g>
<g id="Layer_1">
	<path id="Fill_9" class="st1" d="M22.2,21.4H15c-0.7,0-1.2-0.6-1.2-1.2v-7.3c0-0.7,0.5-1.2,1.2-1.2h7.2c0.7,0,1.2,0.6,1.2,1.2v7.3
		C23.4,20.8,22.9,21.4,22.2,21.4z M9.4,21.4H2.2c-0.7,0-1.2-0.6-1.2-1.2v-7.3c0-0.7,0.5-1.2,1.2-1.2h7.2c0.7,0,1.2,0.6,1.2,1.2v7.3
		C10.6,20.8,10.1,21.4,9.4,21.4z M15.8,10.8H8.6c-0.1,0-1.2-0.6-1.2-1.2V2.2C7.4,1.6,7.9,1,8.6,1h7.2C16.5,1,17,1.6,17,2.2v7.3
		C17,10.2,16.5,10.8,15.8,10.8z"/>
</g>
</svg>
